<svg width="648" height="517" viewBox="0 0 648 517" fill="none" xmlns="http://www.w3.org/2000/svg">
<path fill-rule="evenodd" clip-rule="evenodd" d="M576.871 -297.898C682.017 -273.417 765.689 -212.629 845.151 -139.595C929.835 -61.7613 1006.65 61.6655 1000.79 176.491C994.994 290.046 870.92 351.384 779.121 418.565C706.116 471.993 627.36 515.854 536.871 515.999C446.231 516.145 361.373 479.759 293.84 419.346C221.876 354.969 183.32 269.455 157.349 176.491C116.876 31.6209 5.56332 -142.085 105.597 -254.471C204.923 -366.064 431.315 -331.788 576.871 -297.898Z" fill="#FD8061"/>
<path fill-rule="evenodd" clip-rule="evenodd" d="M560.871 -297.898C666.017 -273.417 749.689 -212.629 829.151 -139.595C913.835 -61.7613 990.647 61.6655 984.788 176.491C978.994 290.046 854.92 351.384 763.121 418.565C690.116 471.993 611.36 515.854 520.871 515.999C430.231 516.145 345.373 479.759 277.84 419.346C205.876 354.969 167.32 269.455 141.349 176.491C100.876 31.6209 -10.4367 -142.085 89.5968 -254.471C188.923 -366.064 415.315 -331.788 560.871 -297.898Z" stroke="#FD8061"/>
<path fill-rule="evenodd" clip-rule="evenodd" d="M544.871 -297.898C650.017 -273.417 733.689 -212.629 813.151 -139.595C897.835 -61.7613 974.647 61.6655 968.788 176.491C962.994 290.046 838.92 351.384 747.121 418.565C674.116 471.993 595.36 515.854 504.871 515.999C414.231 516.145 329.373 479.759 261.84 419.346C189.876 354.969 151.32 269.455 125.349 176.491C84.8765 31.6209 -26.4367 -142.085 73.5968 -254.471C172.923 -366.064 399.315 -331.788 544.871 -297.898Z" stroke="#FD8061"/>
<path fill-rule="evenodd" clip-rule="evenodd" d="M528.871 -297.898C634.017 -273.417 717.689 -212.629 797.151 -139.595C881.835 -61.7613 958.647 61.6655 952.788 176.491C946.994 290.046 822.92 351.384 731.121 418.565C658.116 471.993 579.36 515.854 488.871 515.999C398.231 516.145 313.373 479.759 245.84 419.346C173.876 354.969 135.32 269.455 109.349 176.491C68.8765 31.6209 -42.4367 -142.085 57.5968 -254.471C156.923 -366.064 383.315 -331.788 528.871 -297.898Z" stroke="#FD8061"/>
<path fill-rule="evenodd" clip-rule="evenodd" d="M512.871 -297.898C618.017 -273.417 701.689 -212.629 781.151 -139.595C865.835 -61.7613 942.647 61.6655 936.788 176.491C930.994 290.046 806.92 351.384 715.121 418.565C642.116 471.993 563.36 515.854 472.871 515.999C382.231 516.145 297.373 479.759 229.84 419.346C157.876 354.969 119.32 269.455 93.3486 176.491C52.8765 31.6209 -58.4367 -142.085 41.5968 -254.471C140.923 -366.064 367.315 -331.788 512.871 -297.898Z" stroke="#FD8061"/>
<path fill-rule="evenodd" clip-rule="evenodd" d="M478.219 272.013C428.083 242.858 427.541 170 390.65 124.788C356.355 82.7587 284.405 73.07 272.324 19.6807C260.225 -33.7857 300.944 -84.9213 333.156 -129.283C362.263 -169.371 403.379 -194.63 445.866 -219.321C493.18 -246.818 539.205 -282.956 593.4 -280.523C651.892 -277.897 714.291 -254.508 747.721 -205.768C780.198 -158.417 758.052 -94.5632 760.671 -36.645C763.086 16.7655 777.388 68.465 762.447 119.866C744.18 182.711 724.025 254.999 667.029 285.509C609.539 316.283 534.226 304.583 478.219 272.013Z" fill="#1C1E52"/>
</svg>
