<svg width="349" height="64" viewBox="0 0 349 64" fill="none" xmlns="http://www.w3.org/2000/svg">
<g filter="url(#filter0_d_30_3815)">
<path d="M7.79325 49C6.81192 49 5.95858 48.6373 5.23325 47.912C4.50792 47.1867 4.14525 46.3333 4.14525 45.352V5.928C4.14525 4.94666 4.50792 4.09333 5.23325 3.368C5.95858 2.64266 6.81192 2.28 7.79325 2.28H11.7613C12.7426 2.28 13.5746 2.64266 14.2573 3.368C14.9826 4.09333 15.3453 4.94666 15.3453 5.928V39.464C15.3453 39.8053 15.5373 39.976 15.9213 39.976H31.4733C32.4546 39.976 33.3079 40.3387 34.0333 41.064C34.7586 41.7893 35.1213 42.6427 35.1213 43.624V45.352C35.1213 46.3333 34.7586 47.1867 34.0333 47.912C33.3079 48.6373 32.4546 49 31.4733 49H7.79325ZM57.6853 33.768C52.4799 33.768 49.8773 35.368 49.8773 38.568C49.8773 39.72 50.2186 40.6373 50.9013 41.32C51.5839 41.96 52.5013 42.28 53.6533 42.28C55.7013 42.28 57.3653 41.64 58.6453 40.36C59.9253 39.0373 60.5653 37.288 60.5653 35.112V34.344C60.5653 33.96 60.3733 33.768 59.9893 33.768H57.6853ZM50.5173 49.64C47.5733 49.64 45.1413 48.7013 43.2213 46.824C41.3439 44.904 40.4053 42.4293 40.4053 39.4C40.4053 31.6347 46.1653 27.752 57.6853 27.752H59.9893C60.3733 27.752 60.5653 27.5813 60.5653 27.24V26.92C60.5653 25.2987 60.1386 24.1253 59.2853 23.4C58.4746 22.6747 57.0879 22.312 55.1253 22.312C52.5226 22.312 49.4079 22.7173 45.7812 23.528C44.8853 23.6987 44.0746 23.5067 43.3493 22.952C42.6666 22.3973 42.3253 21.672 42.3253 20.776V20.648C42.3253 19.5813 42.6453 18.6213 43.2853 17.768C43.9679 16.872 44.8213 16.3387 45.8453 16.168C49.5999 15.4427 52.8426 15.08 55.5733 15.08C61.1626 15.08 65.1093 16.0827 67.4133 18.088C69.7599 20.0933 70.9333 23.4213 70.9333 28.072V45.352C70.9333 46.3333 70.5706 47.1867 69.8453 47.912C69.1199 48.6373 68.2666 49 67.2853 49H64.9173C63.8933 49 63.0186 48.6587 62.2933 47.976C61.5679 47.2507 61.1839 46.376 61.1413 45.352V44.648C61.1413 44.6053 61.1199 44.584 61.0773 44.584C60.9919 44.584 60.9493 44.6053 60.9493 44.648C58.2613 47.976 54.7839 49.64 50.5173 49.64ZM119.133 49.64C111.965 49.64 106.226 47.528 101.917 43.304C97.6074 39.0373 95.4528 33.1493 95.4528 25.64C95.4528 18.088 97.5648 12.2 101.789 7.976C106.013 3.752 111.943 1.64 119.581 1.64C122.738 1.64 125.789 1.896 128.733 2.408C129.757 2.57866 130.589 3.09066 131.229 3.944C131.911 4.75466 132.253 5.69333 132.253 6.76V8.488C132.253 9.384 131.89 10.1093 131.165 10.664C130.439 11.2187 129.629 11.3893 128.733 11.176C126.087 10.5787 123.463 10.28 120.861 10.28C111.303 10.28 106.525 15.4 106.525 25.64C106.525 30.76 107.655 34.6 109.917 37.16C112.221 39.72 115.506 41 119.773 41C121.095 41 122.439 40.8293 123.805 40.488C124.189 40.4027 124.381 40.168 124.381 39.784V29.352C124.381 29.0107 124.189 28.84 123.805 28.84H117.853C116.871 28.84 116.018 28.4773 115.293 27.752C114.567 27.0267 114.205 26.1733 114.205 25.192V24.232C114.205 23.2507 114.567 22.3973 115.293 21.672C116.018 20.9467 116.871 20.584 117.853 20.584H131.101C132.082 20.584 132.914 20.9467 133.597 21.672C134.322 22.3973 134.685 23.2507 134.685 24.232V43.368C134.685 44.4773 134.365 45.48 133.725 46.376C133.085 47.2293 132.253 47.8053 131.229 48.104C127.389 49.128 123.357 49.64 119.133 49.64ZM159.123 33.768C153.917 33.768 151.315 35.368 151.315 38.568C151.315 39.72 151.656 40.6373 152.339 41.32C153.021 41.96 153.939 42.28 155.091 42.28C157.139 42.28 158.803 41.64 160.083 40.36C161.363 39.0373 162.003 37.288 162.003 35.112V34.344C162.003 33.96 161.811 33.768 161.427 33.768H159.123ZM151.955 49.64C149.011 49.64 146.579 48.7013 144.659 46.824C142.781 44.904 141.843 42.4293 141.843 39.4C141.843 31.6347 147.603 27.752 159.123 27.752H161.427C161.811 27.752 162.003 27.5813 162.003 27.24V26.92C162.003 25.2987 161.576 24.1253 160.723 23.4C159.912 22.6747 158.525 22.312 156.563 22.312C153.96 22.312 150.845 22.7173 147.219 23.528C146.323 23.6987 145.512 23.5067 144.787 22.952C144.104 22.3973 143.763 21.672 143.763 20.776V20.648C143.763 19.5813 144.083 18.6213 144.723 17.768C145.405 16.872 146.259 16.3387 147.283 16.168C151.037 15.4427 154.28 15.08 157.011 15.08C162.6 15.08 166.547 16.0827 168.851 18.088C171.197 20.0933 172.371 23.4213 172.371 28.072V45.352C172.371 46.3333 172.008 47.1867 171.283 47.912C170.557 48.6373 169.704 49 168.723 49H166.355C165.331 49 164.456 48.6587 163.731 47.976C163.005 47.2507 162.621 46.376 162.579 45.352V44.648C162.579 44.6053 162.557 44.584 162.515 44.584C162.429 44.584 162.387 44.6053 162.387 44.648C159.699 47.976 156.221 49.64 151.955 49.64ZM184.153 49C183.172 49 182.319 48.6373 181.593 47.912C180.868 47.1867 180.505 46.3333 180.505 45.352V19.368C180.505 18.3867 180.868 17.5333 181.593 16.808C182.319 16.0827 183.172 15.72 184.153 15.72H186.521C187.545 15.72 188.399 16.0827 189.081 16.808C189.807 17.4907 190.212 18.344 190.297 19.368L190.361 19.944C190.361 19.9867 190.383 20.008 190.425 20.008C190.511 20.008 190.553 19.9867 190.553 19.944C193.071 16.7013 195.951 15.08 199.193 15.08C201.156 15.08 202.713 15.4427 203.865 16.168C205.017 16.8507 206.084 18.088 207.065 19.88C207.065 19.9653 207.108 20.008 207.193 20.008L207.321 19.88C210.265 16.68 213.337 15.08 216.537 15.08C220.164 15.08 222.788 16.0613 224.409 18.024C226.031 19.944 226.841 23.2293 226.841 27.88V45.352C226.841 46.3333 226.479 47.1867 225.753 47.912C225.028 48.6373 224.175 49 223.193 49H220.377C219.396 49 218.543 48.6373 217.817 47.912C217.092 47.1867 216.729 46.3333 216.729 45.352V28.52C216.729 26.216 216.473 24.7013 215.961 23.976C215.449 23.208 214.489 22.824 213.081 22.824C212.1 22.824 211.14 23.2293 210.201 24.04C209.305 24.8507 208.857 25.64 208.857 26.408V45.352C208.857 46.3333 208.495 47.1867 207.769 47.912C207.044 48.6373 206.191 49 205.209 49H202.393C201.412 49 200.559 48.6373 199.833 47.912C199.108 47.1867 198.745 46.3333 198.745 45.352V28.52C198.745 26.216 198.489 24.7013 197.977 23.976C197.508 23.208 196.569 22.824 195.161 22.824C194.18 22.824 193.22 23.2293 192.281 24.04C191.343 24.8507 190.873 25.64 190.873 26.408V45.352C190.873 46.3333 190.511 47.1867 189.785 47.912C189.06 48.6373 188.207 49 187.225 49H184.153ZM249.215 22.056C247.295 22.056 245.844 22.568 244.863 23.592C243.881 24.5733 243.263 26.28 243.007 28.712C243.007 29.0533 243.156 29.224 243.455 29.224H254.271C254.655 29.224 254.847 29.032 254.847 28.648C254.676 24.2533 252.799 22.056 249.215 22.056ZM250.815 49.64C245.012 49.64 240.532 48.168 237.375 45.224C234.26 42.28 232.703 37.992 232.703 32.36C232.703 26.7707 234.089 22.504 236.863 19.56C239.679 16.5733 243.732 15.08 249.023 15.08C259.177 15.08 264.34 20.6267 264.511 31.72C264.511 32.744 264.105 33.6187 263.295 34.344C262.527 35.0267 261.631 35.368 260.607 35.368H243.519C243.092 35.368 242.921 35.56 243.007 35.944C243.348 38.2907 244.244 39.976 245.695 41C247.188 41.9813 249.407 42.472 252.351 42.472C254.271 42.472 256.34 42.1947 258.559 41.64C259.455 41.4267 260.244 41.5973 260.927 42.152C261.652 42.7067 262.015 43.432 262.015 44.328V44.456C262.015 45.5227 261.673 46.504 260.991 47.4C260.351 48.2533 259.519 48.7653 258.495 48.936C256.02 49.4053 253.46 49.64 250.815 49.64ZM276.316 49C275.334 49 274.481 48.6373 273.756 47.912C273.03 47.1867 272.668 46.3333 272.668 45.352V4.648C272.668 3.66667 273.03 2.81333 273.756 2.088C274.481 1.36266 275.334 0.999996 276.316 0.999996H279.9C280.881 0.999996 281.734 1.36266 282.46 2.088C283.185 2.81333 283.548 3.66667 283.548 4.648V45.352C283.548 46.3333 283.185 47.1867 282.46 47.912C281.734 48.6373 280.881 49 279.9 49H276.316ZM297.566 49C296.584 49 295.731 48.6373 295.006 47.912C294.28 47.1867 293.918 46.3333 293.918 45.352V4.648C293.918 3.66667 294.28 2.81333 295.006 2.088C295.731 1.36266 296.584 0.999996 297.566 0.999996H301.15C302.131 0.999996 302.984 1.36266 303.71 2.088C304.435 2.81333 304.798 3.66667 304.798 4.648V45.352C304.798 46.3333 304.435 47.1867 303.71 47.912C302.984 48.6373 302.131 49 301.15 49H297.566ZM329.09 22.056C327.17 22.056 325.719 22.568 324.738 23.592C323.756 24.5733 323.138 26.28 322.882 28.712C322.882 29.0533 323.031 29.224 323.33 29.224H334.146C334.53 29.224 334.722 29.032 334.722 28.648C334.551 24.2533 332.674 22.056 329.09 22.056ZM330.69 49.64C324.887 49.64 320.407 48.168 317.25 45.224C314.135 42.28 312.578 37.992 312.578 32.36C312.578 26.7707 313.964 22.504 316.738 19.56C319.554 16.5733 323.607 15.08 328.898 15.08C339.052 15.08 344.215 20.6267 344.386 31.72C344.386 32.744 343.98 33.6187 343.17 34.344C342.402 35.0267 341.506 35.368 340.482 35.368H323.394C322.967 35.368 322.796 35.56 322.882 35.944C323.223 38.2907 324.119 39.976 325.57 41C327.063 41.9813 329.282 42.472 332.226 42.472C334.146 42.472 336.215 42.1947 338.434 41.64C339.33 41.4267 340.119 41.5973 340.802 42.152C341.527 42.7067 341.89 43.432 341.89 44.328V44.456C341.89 45.5227 341.548 46.504 340.866 47.4C340.226 48.2533 339.394 48.7653 338.37 48.936C335.895 49.4053 333.335 49.64 330.69 49.64Z" fill="#1C1E52"/>
</g>
<defs>
<filter id="filter0_d_30_3815" x="0.145264" y="0" width="348.24" height="72" filterUnits="userSpaceOnUse" color-interpolation-filters="sRGB">
<feFlood flood-opacity="0" result="BackgroundImageFix"/>
<feColorMatrix in="SourceAlpha" type="matrix" values="0 0 0 0 0 0 0 0 0 0 0 0 0 0 0 0 0 0 127 0" result="hardAlpha"/>
<feOffset dy="4"/>
<feGaussianBlur stdDeviation="2"/>
<feComposite in2="hardAlpha" operator="out"/>
<feColorMatrix type="matrix" values="0 0 0 0 0 0 0 0 0 0 0 0 0 0 0 0 0 0 0.25 0"/>
<feBlend mode="normal" in2="BackgroundImageFix" result="effect1_dropShadow_30_3815"/>
<feBlend mode="normal" in="SourceGraphic" in2="effect1_dropShadow_30_3815" result="shape"/>
</filter>
</defs>
</svg>
