<svg width="554" height="564" viewBox="0 0 554 564" fill="none" xmlns="http://www.w3.org/2000/svg">
<ellipse cx="277" cy="282" rx="277" ry="282" fill="#F9FAFF"/>
<path fill-rule="evenodd" clip-rule="evenodd" d="M293.941 128.831C288.564 135.835 276.843 147.145 268.022 148.437C265.549 148.76 263.183 149.191 260.817 149.945C247.267 154.039 239.2 169.767 233.501 181.616C223.715 201.868 232.748 217.056 242.211 235.155L242.426 235.585V236.232C242.426 237.417 242.426 238.602 242.426 239.786L242.211 244.095L238.662 241.618C223.715 231.277 213.496 215.01 211.883 196.698C210.378 179.354 216.832 163.194 228.876 150.915C245.332 134.324 269.205 127.215 291.79 124.953L297.275 124.415L293.941 128.831ZM335.67 125.707C344.811 126.892 359.866 129.585 367.719 134.432C383.527 144.452 383.312 178.6 382.451 195.19L382.236 197.775L379.763 197.452C356.102 194.434 335.025 195.729 317.602 175.584C295.877 150.484 318.892 145.206 333.519 126.677L334.38 125.599L335.67 125.707ZM231.242 362.052C228.446 367.976 225.865 374.872 222.424 380.473C219.521 384.997 215.864 388.768 211.883 392.322C204.678 398.893 196.72 404.925 189.085 410.959C160.048 433.687 145.636 398.893 142.41 375.195L142.087 373.147L144.238 372.608C205.861 357.205 239.845 317.994 246.192 254.974L247.267 243.772L250.816 254.436C259.419 280.613 242.641 337.168 231.242 362.052Z" fill="#FD8061"/>
<g filter="url(#filter0_d_119_1599)">
<path fill-rule="evenodd" clip-rule="evenodd" d="M249.911 245.172C253.353 246.788 256.794 248.188 260.235 249.158C266.365 250.881 276.475 252.497 281.207 248.942C288.842 243.341 275.709 219.985 264.967 204.777C254.224 189.569 243.277 183.889 246.88 180.279C250.484 176.67 253.187 181.783 253.187 181.783C253.187 181.783 288.197 218.564 292.284 241.725C296.155 263.486 268.516 263.594 249.159 255.19C243.027 316.055 210.978 358.497 145.376 374.872C139.246 376.488 136.988 367.222 143.118 365.607C206.462 349.772 235.177 309.16 240.016 250.558C180.436 215.118 192.374 115.151 313.901 116.982C339.927 117.413 363.048 122.799 372.083 128.4C394.343 142.405 390.472 193.788 389.397 204.669L422.413 244.957C424.028 246.68 424.136 249.373 422.52 251.204C398.754 278.997 363.588 292.356 331.429 273.934C337.669 281.259 345.412 288.694 354.66 295.587C356.165 296.665 356.811 298.496 356.595 300.219C355.95 304.097 339.282 409.128 377.89 431.102L421.015 442.091C424.351 443.06 443.277 449.954 443.277 477.531C443.277 480.224 441.127 482.271 438.438 482.271L349.821 481.84C322.396 471.93 302.392 460.941 288.197 449.631L288.195 449.629C286.368 448.122 284.54 446.614 282.82 445.107C279.946 448.418 276.141 450.447 269.825 455.509C266.822 457.915 263.518 459.72 266.822 462.126C270.125 464.532 276.496 476.103 276.475 482.271H200.44H157.315C152.366 482.271 117.091 459.433 114.295 402.232C111.822 349.557 143.718 260.592 118.952 234.724C113.847 227.505 96.9286 223.671 85.3184 229.309C69.8381 236.827 64.5977 252.17 76.0092 271.421C77.2104 273.447 70.1746 282.55 65.7988 272.624C55.5886 249.463 62.1953 235.626 75.4085 225.7C88.6216 215.773 111.445 216.908 123.757 228.106C153.787 254.275 120.963 342.446 123.866 401.801C126.234 451.247 153.011 469.561 158.498 472.792H205.709C218.604 472.792 262.918 477.743 263.518 472.792C264.119 467.841 254.818 466.746 255.304 461.224C255.596 457.899 257.089 456.119 259.314 453.679C263.977 448.568 271.576 443.689 276.045 438.429C253.998 414.621 250.879 384.89 270.021 360.867C318.202 300.111 334.225 375.842 288.735 437.567C290.455 439.183 292.284 440.691 294.219 442.199C307.556 452.863 326.483 463.313 352.617 472.792H433.491C431.663 455.879 420.477 451.893 418.864 451.462L373.804 439.721C332.182 417.099 344.121 319.395 346.702 301.512C310.037 273.301 298.242 237.372 297.107 233.917L297.107 233.916C297.05 233.743 297.02 233.652 297.015 233.647C295.295 227.938 303.575 224.812 305.943 230.415C321.428 266.61 355.09 281.905 387.138 267.148C368.857 248.404 384.665 231.708 393.483 224.704L380.794 209.193C379.933 208.116 379.611 206.823 379.718 205.531C379.718 205.528 379.722 205.494 379.73 205.429C380.04 202.761 386.346 148.574 367.029 136.479C359.176 131.632 338.099 126.892 313.793 126.569C205.171 124.846 194.203 207.47 240.661 239.679L249.911 245.172ZM277.443 366.792C268.085 378.535 264.106 393.83 269.161 409.451C271.419 416.345 275.508 423.562 281.96 430.779C288.95 420.977 294.434 410.42 298.413 400.185C309.492 371.531 313.686 321.118 277.443 366.792Z" fill="#1C1E52"/>
</g>
<g filter="url(#filter1_d_119_1599)">
<path d="M311.484 49.859C309.203 50.605 305.293 54.6146 304.595 56.9924C303.896 59.3236 303.896 61.8413 304.501 63.5198C304.781 64.2192 304.92 64.8719 304.781 64.9651C304.688 65.0584 302.547 65.478 300.033 65.851C273.873 69.7674 248.878 81.7032 222.299 102.917C204.891 116.811 194.65 130.192 192.695 141.522C190.927 151.965 197.21 163.482 206.753 167.305C208.661 168.051 210.337 168.33 213.269 168.377C218.575 168.377 217.924 168.703 243.013 153.97C259.397 144.319 271.965 138.911 281.926 137.139C285.417 136.533 292.911 136.44 332.849 136.44C364.501 136.44 380.653 136.253 382.514 135.927C390.8 134.435 397.875 127.861 400.016 119.702C402.064 111.822 399.923 101.612 394.617 93.5923C390.427 87.3447 381.165 79.5118 372.926 75.3623C362.546 70.0938 345.091 65.6645 331.173 64.732L326.146 64.4057L326.332 61.888C326.565 58.2979 325.634 55.6403 323.26 52.9828C320.234 49.6259 315.906 48.4603 311.484 49.859Z" fill="#1C1E52"/>
</g>
<path fill-rule="evenodd" clip-rule="evenodd" d="M367.52 173.888C361.821 164.95 351.965 163.091 340.831 164.518C333.375 165.473 327.061 169.451 336.983 170.06C346.904 170.669 350.785 168.548 358.806 177.132C364.138 179.626 369.506 177.003 367.52 173.888Z" fill="#1C1E52"/>
<defs>
<filter id="filter0_d_119_1599" x="56.8151" y="116.958" width="390.462" height="373.313" filterUnits="userSpaceOnUse" color-interpolation-filters="sRGB">
<feFlood flood-opacity="0" result="BackgroundImageFix"/>
<feColorMatrix in="SourceAlpha" type="matrix" values="0 0 0 0 0 0 0 0 0 0 0 0 0 0 0 0 0 0 127 0" result="hardAlpha"/>
<feOffset dy="4"/>
<feGaussianBlur stdDeviation="2"/>
<feComposite in2="hardAlpha" operator="out"/>
<feColorMatrix type="matrix" values="0 0 0 0 0 0 0 0 0 0 0 0 0 0 0 0 0 0 0.25 0"/>
<feBlend mode="normal" in2="BackgroundImageFix" result="effect1_dropShadow_119_1599"/>
<feBlend mode="normal" in="SourceGraphic" in2="effect1_dropShadow_119_1599" result="shape"/>
</filter>
<filter id="filter1_d_119_1599" x="188.397" y="49.2791" width="216.386" height="127.099" filterUnits="userSpaceOnUse" color-interpolation-filters="sRGB">
<feFlood flood-opacity="0" result="BackgroundImageFix"/>
<feColorMatrix in="SourceAlpha" type="matrix" values="0 0 0 0 0 0 0 0 0 0 0 0 0 0 0 0 0 0 127 0" result="hardAlpha"/>
<feOffset dy="4"/>
<feGaussianBlur stdDeviation="2"/>
<feComposite in2="hardAlpha" operator="out"/>
<feColorMatrix type="matrix" values="0 0 0 0 0 0 0 0 0 0 0 0 0 0 0 0 0 0 0.25 0"/>
<feBlend mode="normal" in2="BackgroundImageFix" result="effect1_dropShadow_119_1599"/>
<feBlend mode="normal" in="SourceGraphic" in2="effect1_dropShadow_119_1599" result="shape"/>
</filter>
</defs>
</svg>
