<?xml version="1.0" encoding="UTF-8"?>
<svg width="700pt" height="700pt" version="1.1" viewBox="0 0 700 700" xmlns="http://www.w3.org/2000/svg" xmlns:xlink="http://www.w3.org/1999/xlink">
 <defs>
  <symbol id="s" overflow="visible">
   <path d="m2.1562-0.125c-0.11719 0.054688-0.23438 0.09375-0.35938 0.125-0.11719 0.03125-0.23438 0.046875-0.35938 0.046875-0.39844 0-0.71094-0.10938-0.9375-0.32812-0.23047-0.21875-0.34375-0.51562-0.34375-0.89062s0.11328-0.67188 0.34375-0.89062c0.22656-0.21875 0.53906-0.32812 0.9375-0.32812 0.125 0 0.24219 0.015625 0.35938 0.046875 0.125 0.03125 0.24219 0.074219 0.35938 0.125v0.48438c-0.11719-0.070313-0.23047-0.125-0.34375-0.15625-0.10547-0.039063-0.21484-0.0625-0.32812-0.0625-0.21875 0-0.39062 0.074219-0.51562 0.21875-0.125 0.13672-0.1875 0.32422-0.1875 0.5625 0 0.24219 0.0625 0.43359 0.1875 0.57812 0.125 0.13672 0.29688 0.20312 0.51562 0.20312 0.11328 0 0.22266-0.015625 0.32812-0.046875 0.11328-0.039062 0.22656-0.097656 0.34375-0.17188z"/>
  </symbol>
  <symbol id="d" overflow="visible">
   <path d="m1.5781-1.2812c-0.054687-0.019531-0.10547-0.035156-0.15625-0.046875-0.042969-0.007813-0.089844-0.015625-0.14062-0.015625-0.14844 0-0.26172 0.046875-0.34375 0.14062-0.074219 0.09375-0.10938 0.22656-0.10938 0.39062v0.8125h-0.5625v-1.7656h0.5625v0.29688c0.070313-0.11328 0.15625-0.19531 0.25-0.25 0.09375-0.050781 0.20703-0.078125 0.34375-0.078125h0.0625 0.09375z"/>
  </symbol>
  <symbol id="a" overflow="visible">
   <path d="m2.0312-0.89062v0.17188h-1.3125c0.007812 0.125 0.054688 0.22656 0.14062 0.29688 0.082031 0.0625 0.19531 0.09375 0.34375 0.09375 0.11328 0 0.23438-0.015625 0.35938-0.046875 0.125-0.039062 0.25-0.097656 0.375-0.17188v0.4375c-0.125 0.054688-0.25781 0.089844-0.39062 0.10938-0.13672 0.03125-0.27344 0.046875-0.40625 0.046875-0.3125 0-0.55859-0.078125-0.73438-0.23438-0.17969-0.16406-0.26562-0.39453-0.26562-0.6875 0-0.28906 0.082031-0.51562 0.25-0.67188 0.17578-0.16406 0.41406-0.25 0.71875-0.25 0.28125 0 0.50391 0.085937 0.67188 0.25 0.16406 0.16797 0.25 0.38672 0.25 0.65625zm-0.57812-0.1875c0-0.10156-0.03125-0.1875-0.09375-0.25s-0.14844-0.09375-0.25-0.09375c-0.10547 0-0.19531 0.03125-0.26562 0.09375-0.0625 0.054687-0.10547 0.13672-0.125 0.25z"/>
  </symbol>
  <symbol id="l" overflow="visible">
   <path d="m1.0625-0.79688c-0.11719 0-0.20312 0.023437-0.26562 0.0625-0.0625 0.042969-0.09375 0.10156-0.09375 0.17188 0 0.074219 0.019531 0.13281 0.0625 0.17188 0.050781 0.042969 0.11719 0.0625 0.20312 0.0625 0.11328 0 0.20703-0.035156 0.28125-0.10938 0.070312-0.082031 0.10938-0.17969 0.10938-0.29688v-0.0625zm0.85938-0.20312v1h-0.5625v-0.26562c-0.085937 0.11719-0.17188 0.19922-0.26562 0.25-0.09375 0.039062-0.21094 0.0625-0.34375 0.0625-0.17969 0-0.32422-0.050781-0.4375-0.15625-0.11719-0.11328-0.17188-0.25391-0.17188-0.42188 0-0.20703 0.066406-0.35938 0.20312-0.45312 0.14453-0.09375 0.36719-0.14062 0.67188-0.14062h0.34375v-0.046875c0-0.082031-0.039063-0.14453-0.10938-0.1875-0.074219-0.039063-0.18359-0.0625-0.32812-0.0625-0.125 0-0.24219 0.011719-0.34375 0.03125-0.10547 0.023437-0.19922 0.058594-0.28125 0.10938v-0.4375c0.11328-0.019531 0.23438-0.035156 0.35938-0.046875 0.125-0.019531 0.24219-0.03125 0.35938-0.03125 0.32031 0 0.55078 0.0625 0.6875 0.1875 0.14453 0.125 0.21875 0.32812 0.21875 0.60938z"/>
  </symbol>
  <symbol id="c" overflow="visible">
   <path d="m0.89062-2.2656v0.5h0.57812v0.40625h-0.57812v0.75c0 0.085937 0.015625 0.14062 0.046875 0.17188 0.03125 0.023438 0.09375 0.03125 0.1875 0.03125h0.29688v0.40625h-0.48438c-0.23047 0-0.39062-0.046875-0.48438-0.14062-0.085937-0.09375-0.125-0.25-0.125-0.46875v-0.75h-0.28125v-0.40625h0.28125v-0.5z"/>
  </symbol>
  <symbol id="k" overflow="visible">
   <path d="m1.4688-1.5v-0.95312h0.5625v2.4531h-0.5625v-0.25c-0.074219 0.10547-0.15625 0.18359-0.25 0.23438-0.09375 0.039062-0.20312 0.0625-0.32812 0.0625-0.21875 0-0.40234-0.082031-0.54688-0.25-0.13672-0.17578-0.20312-0.39844-0.20312-0.67188 0-0.26953 0.066406-0.48828 0.20312-0.65625 0.14453-0.17578 0.32812-0.26562 0.54688-0.26562 0.11328 0 0.21875 0.027344 0.3125 0.078125 0.10156 0.042969 0.19141 0.11719 0.26562 0.21875zm-0.375 1.1406c0.125 0 0.21875-0.039063 0.28125-0.125 0.0625-0.09375 0.09375-0.22266 0.09375-0.39062 0-0.16406-0.03125-0.28906-0.09375-0.375-0.0625-0.09375-0.15625-0.14062-0.28125-0.14062-0.11719 0-0.20312 0.046875-0.26562 0.14062-0.0625 0.085938-0.09375 0.21094-0.09375 0.375 0 0.16797 0.03125 0.29688 0.09375 0.39062 0.0625 0.085937 0.14844 0.125 0.26562 0.125z"/>
  </symbol>
  <symbol id="j" overflow="visible">
   <path d="m1.2031-0.35938c0.125 0 0.21875-0.039063 0.28125-0.125 0.0625-0.09375 0.09375-0.22266 0.09375-0.39062 0-0.16406-0.03125-0.28906-0.09375-0.375-0.0625-0.09375-0.15625-0.14062-0.28125-0.14062-0.11719 0-0.21094 0.046875-0.28125 0.14062-0.0625 0.085938-0.09375 0.21094-0.09375 0.375 0 0.16797 0.03125 0.29688 0.09375 0.39062 0.070313 0.085937 0.16406 0.125 0.28125 0.125zm-0.375-1.1406c0.082031-0.10156 0.17188-0.17578 0.26562-0.21875 0.09375-0.050781 0.20312-0.078125 0.32812-0.078125 0.20703 0 0.37891 0.089844 0.51562 0.26562 0.14453 0.16797 0.21875 0.38672 0.21875 0.65625 0 0.27344-0.074219 0.49609-0.21875 0.67188-0.13672 0.16797-0.30859 0.25-0.51562 0.25-0.125 0-0.23438-0.023438-0.32812-0.0625-0.09375-0.050781-0.18359-0.12891-0.26562-0.23438v0.25h-0.5625v-2.4531h0.5625z"/>
  </symbol>
  <symbol id="i" overflow="visible">
   <path d="m0.046875-1.7656h0.5625l0.46875 1.2031 0.40625-1.2031h0.5625l-0.75 1.9375c-0.074219 0.1875-0.16406 0.31641-0.26562 0.39062-0.09375 0.082031-0.22656 0.125-0.39062 0.125h-0.3125v-0.35938h0.17188c0.09375 0 0.16016-0.015625 0.20312-0.046875 0.039063-0.03125 0.078125-0.089844 0.10938-0.17188l0.015625-0.046875z"/>
  </symbol>
  <symbol id="h" overflow="visible">
   <path d="m0.26562-1.7656h0.5625v1.7656h-0.5625zm0-0.6875h0.5625v0.46875h-0.5625z"/>
  </symbol>
  <symbol id="g" overflow="visible">
   <path d="m1.6875-1.7031v0.45312c-0.074219-0.050781-0.15234-0.085938-0.23438-0.10938-0.074219-0.03125-0.15234-0.046875-0.23438-0.046875-0.15625 0-0.28125 0.046875-0.375 0.14062-0.085938 0.09375-0.125 0.22656-0.125 0.39062 0 0.16797 0.039062 0.29688 0.125 0.39062 0.09375 0.085937 0.21875 0.125 0.375 0.125 0.09375 0 0.17578-0.007813 0.25-0.03125 0.082031-0.03125 0.15625-0.070313 0.21875-0.125v0.46875c-0.085938 0.03125-0.17188 0.050781-0.26562 0.0625-0.09375 0.019531-0.18359 0.03125-0.26562 0.03125-0.32422 0-0.57422-0.078125-0.75-0.23438-0.17969-0.16406-0.26562-0.39453-0.26562-0.6875 0-0.28906 0.085937-0.51562 0.26562-0.67188 0.17578-0.16406 0.42578-0.25 0.75-0.25 0.09375 0 0.17969 0.011719 0.26562 0.03125 0.09375 0.011719 0.17969 0.03125 0.26562 0.0625z"/>
  </symbol>
  <symbol id="b" overflow="visible">
   <path d="m1.1094-1.4062c-0.125 0-0.22656 0.046875-0.29688 0.14062-0.0625 0.09375-0.09375 0.22656-0.09375 0.39062 0 0.16797 0.03125 0.29688 0.09375 0.39062 0.070312 0.085937 0.17188 0.125 0.29688 0.125s0.21875-0.039063 0.28125-0.125c0.0625-0.09375 0.09375-0.22266 0.09375-0.39062 0-0.16406-0.03125-0.29688-0.09375-0.39062s-0.15625-0.14062-0.28125-0.14062zm0-0.39062c0.30078 0 0.53516 0.085937 0.70312 0.25 0.17578 0.15625 0.26562 0.38281 0.26562 0.67188 0 0.29297-0.089844 0.52344-0.26562 0.6875-0.16797 0.15625-0.40234 0.23438-0.70312 0.23438-0.30469 0-0.54297-0.078125-0.71875-0.23438-0.16797-0.16406-0.25-0.39453-0.25-0.6875 0-0.28906 0.082031-0.51562 0.25-0.67188 0.17578-0.16406 0.41406-0.25 0.71875-0.25z"/>
  </symbol>
  <symbol id="f" overflow="visible">
   <path d="m2.0469-1.0781v1.0781h-0.57812v-0.82812c0-0.14453-0.007812-0.24219-0.015625-0.29688 0-0.0625-0.011719-0.10938-0.03125-0.14062-0.023437-0.03125-0.054687-0.054687-0.09375-0.078125-0.03125-0.019531-0.074219-0.03125-0.125-0.03125-0.11719 0-0.21094 0.046875-0.28125 0.14062-0.0625 0.085937-0.09375 0.21094-0.09375 0.375v0.85938h-0.5625v-1.7656h0.5625v0.26562c0.082031-0.10156 0.17188-0.17578 0.26562-0.21875 0.10156-0.050781 0.21094-0.078125 0.32812-0.078125 0.19531 0 0.34766 0.0625 0.45312 0.1875 0.11328 0.125 0.17188 0.30469 0.17188 0.53125z"/>
  </symbol>
  <symbol id="e" overflow="visible">
   <path d="m0.25-0.6875v-1.0781h0.5625v0.1875 0.35938 0.28125c0 0.14844 0.003906 0.25 0.015625 0.3125 0.007813 0.0625 0.019531 0.10547 0.03125 0.125 0.019531 0.042969 0.050781 0.074219 0.09375 0.09375 0.039063 0.023438 0.082031 0.03125 0.125 0.03125 0.11328 0 0.20312-0.046875 0.26562-0.14062 0.070312-0.09375 0.10938-0.21875 0.10938-0.375v-0.875h0.5625v1.7656h-0.5625v-0.25c-0.085937 0.10547-0.17188 0.18359-0.26562 0.23438-0.09375 0.039062-0.19922 0.0625-0.3125 0.0625-0.19922 0-0.35547-0.0625-0.46875-0.1875-0.10547-0.125-0.15625-0.30469-0.15625-0.54688z"/>
  </symbol>
  <symbol id="r" overflow="visible">
   <path d="m1.4219-2.4531v0.375h-0.29688c-0.085938 0-0.14062 0.015625-0.17188 0.046875s-0.046875 0.078125-0.046875 0.14062v0.125h0.48438v0.40625h-0.48438v1.3594h-0.5625v-1.3594h-0.28125v-0.40625h0.28125v-0.125c0-0.1875 0.050781-0.32812 0.15625-0.42188 0.10156-0.09375 0.26953-0.14062 0.5-0.14062z"/>
  </symbol>
  <symbol id="q" overflow="visible">
   <path d="m1.9062-1.4688c0.070312-0.10156 0.15625-0.17969 0.25-0.23438 0.09375-0.0625 0.20312-0.09375 0.32812-0.09375 0.19531 0 0.34766 0.0625 0.45312 0.1875 0.10156 0.125 0.15625 0.30469 0.15625 0.53125v1.0781h-0.5625v-0.92188-0.03125-0.0625c0-0.125-0.023438-0.21094-0.0625-0.26562-0.03125-0.0625-0.089844-0.09375-0.17188-0.09375-0.10547 0-0.1875 0.046875-0.25 0.14062-0.054687 0.085937-0.078125 0.21094-0.078125 0.375v0.85938h-0.5625v-0.92188c0-0.1875-0.023438-0.30469-0.0625-0.35938-0.03125-0.0625-0.089844-0.09375-0.17188-0.09375-0.10547 0-0.1875 0.046875-0.25 0.14062-0.0625 0.085937-0.09375 0.21094-0.09375 0.375v0.85938h-0.5625v-1.7656h0.5625v0.26562c0.070313-0.10156 0.14844-0.17578 0.23438-0.21875 0.09375-0.050781 0.19531-0.078125 0.3125-0.078125 0.11328 0 0.21875 0.03125 0.3125 0.09375 0.09375 0.054687 0.16406 0.13281 0.21875 0.23438z"/>
  </symbol>
  <symbol id="p" overflow="visible">
   <path d="m2.0469-1.0781v1.0781h-0.57812v-0.8125c0-0.15625-0.007812-0.25781-0.015625-0.3125 0-0.0625-0.011719-0.10938-0.03125-0.14062-0.023437-0.03125-0.054687-0.054687-0.09375-0.078125-0.03125-0.019531-0.074219-0.03125-0.125-0.03125-0.11719 0-0.21094 0.046875-0.28125 0.14062-0.0625 0.085937-0.09375 0.21094-0.09375 0.375v0.85938h-0.5625v-2.4531h0.5625v0.95312c0.082031-0.10156 0.17188-0.17578 0.26562-0.21875 0.10156-0.050781 0.21094-0.078125 0.32812-0.078125 0.19531 0 0.34766 0.0625 0.45312 0.1875 0.11328 0.125 0.17188 0.30469 0.17188 0.53125z"/>
  </symbol>
  <symbol id="o" overflow="visible">
   <path d="m0.29688-2.3438h0.67188l0.85938 1.6094v-1.6094h0.5625v2.3438h-0.67188l-0.84375-1.6094v1.6094h-0.57812z"/>
  </symbol>
  <symbol id="n" overflow="visible">
   <path d="m0.29688-2.3438h1c0.30078 0 0.53125 0.070312 0.6875 0.20312 0.16406 0.125 0.25 0.3125 0.25 0.5625 0 0.24219-0.085937 0.42969-0.25 0.5625-0.15625 0.13672-0.38672 0.20312-0.6875 0.20312h-0.39062v0.8125h-0.60938zm0.60938 0.4375v0.65625h0.32812c0.11328 0 0.20312-0.023438 0.26562-0.078125 0.070312-0.0625 0.10938-0.14453 0.10938-0.25 0-0.10156-0.039063-0.17969-0.10938-0.23438-0.0625-0.0625-0.15234-0.09375-0.26562-0.09375z"/>
  </symbol>
  <symbol id="m" overflow="visible">
   <path d="m0.26562-1.7656h0.5625v1.7344c0 0.23828-0.058594 0.41406-0.17188 0.53125-0.10547 0.125-0.26562 0.1875-0.48438 0.1875h-0.28125v-0.35938h0.09375c0.11328 0 0.1875-0.027344 0.21875-0.078125 0.039063-0.042969 0.0625-0.13672 0.0625-0.28125zm0-0.6875h0.5625v0.46875h-0.5625z"/>
  </symbol>
 </defs>
 <g>
  <path d="m0 284.28v-262.9h301.84v154.93h135.66v370.88h-437.5zm508.95-0.40234v-114.79h131.65v67.43h59.406v162.16h-191.05zm144.5-87.277c0-26.512 0.03125-27.039 1.5078-25.488 2.5586 2.6875 40.066 46.949 43.348 51.152 1.0391 1.332-0.11328 1.4062-21.879 1.4062h-22.977zm-322.71-111.47c0-34.254 0.30859-62.16 0.68359-62.012 0.66406 0.26172 103.59 121.41 104.78 123.33 0.46094 0.74219-11.445 0.96094-52.434 0.96094h-53.027z"/>
  <use y="556.808594" xlink:href="#s"/>
  <use x="2.355469" y="556.808594" xlink:href="#d"/>
  <use x="3.941406" y="556.808594" xlink:href="#a"/>
  <use x="6.117188" y="556.808594" xlink:href="#l"/>
  <use x="8.285156" y="556.808594" xlink:href="#c"/>
  <use x="9.820312" y="556.808594" xlink:href="#a"/>
  <use x="11.996094" y="556.808594" xlink:href="#k"/>
  <use x="15.414063" y="556.808594" xlink:href="#j"/>
  <use x="17.710938" y="556.808594" xlink:href="#i"/>
  <use x="20.921875" y="556.808594" xlink:href="#h"/>
  <use x="22.023438" y="556.808594" xlink:href="#g"/>
  <use x="23.925781" y="556.808594" xlink:href="#b"/>
  <use x="26.132812" y="556.808594" xlink:href="#f"/>
  <use x="28.417969" y="556.808594" xlink:href="#a"/>
  <use x="30.597656" y="556.808594" xlink:href="#e"/>
  <use y="560.019531" xlink:href="#r"/>
  <use x="1.398438" y="560.019531" xlink:href="#d"/>
  <use x="2.980469" y="560.019531" xlink:href="#b"/>
  <use x="5.1875" y="560.019531" xlink:href="#q"/>
  <use x="9.648438" y="560.019531" xlink:href="#c"/>
  <use x="11.183594" y="560.019531" xlink:href="#p"/>
  <use x="13.472656" y="560.019531" xlink:href="#a"/>
  <use x="16.765625" y="560.019531" xlink:href="#o"/>
  <use x="19.453125" y="560.019531" xlink:href="#b"/>
  <use x="21.660156" y="560.019531" xlink:href="#e"/>
  <use x="23.945312" y="560.019531" xlink:href="#f"/>
  <use x="27.351563" y="560.019531" xlink:href="#n"/>
  <use x="29.703125" y="560.019531" xlink:href="#d"/>
  <use x="31.285156" y="560.019531" xlink:href="#b"/>
  <use x="33.492188" y="560.019531" xlink:href="#m"/>
  <use x="34.59375" y="560.019531" xlink:href="#a"/>
  <use x="36.769531" y="560.019531" xlink:href="#g"/>
  <use x="38.675781" y="560.019531" xlink:href="#c"/>
 </g>
</svg>
