<svg width="901" height="857" viewBox="0 0 901 857" fill="none" xmlns="http://www.w3.org/2000/svg">
<path fill-rule="evenodd" clip-rule="evenodd" d="M469.673 100.042C546.874 76.1909 638.441 88.0132 703.833 128.673C756.5 161.422 786.986 230.752 797 254.5C814.5 296 825.672 412.621 797 485.5C768.308 558.429 747 613.5 673.5 680.221C607.069 740.526 535.5 803.5 466.5 803.5C390 803.5 316.07 731.79 243.5 680.221C176.138 632.353 133.014 572.962 112 521C84.4999 453 70.9999 373 112 303C165.388 211.849 213.293 222.441 296.5 191.5C396 154.5 377 128.673 469.673 100.042Z" fill="#FEC0A0"/>
<path fill-rule="evenodd" clip-rule="evenodd" d="M469.673 60.0404C546.874 36.1892 638.441 48.0115 703.833 88.6716C756.5 121.42 786.986 190.75 797 214.498C814.5 255.998 825.672 372.619 797 445.498C768.308 518.427 747 573.498 673.5 640.22C607.069 700.524 535.5 763.498 466.5 763.498C390 763.498 316.07 691.789 243.5 640.22C176.138 592.351 133.014 532.96 112 480.998C84.4999 412.998 70.9999 332.998 112 262.998C165.388 171.847 213.293 182.439 296.5 151.498C396 114.498 377 88.6717 469.673 60.0404Z" stroke="#FEC0A0" stroke-width="2"/>
<path fill-rule="evenodd" clip-rule="evenodd" d="M469.673 40.0404C546.874 16.1892 638.441 28.0115 703.833 68.6716C756.5 101.42 786.986 170.75 797 194.498C814.5 235.998 825.672 352.619 797 425.498C768.308 498.427 747 553.498 673.5 620.22C607.069 680.524 535.5 743.498 466.5 743.498C390 743.498 316.07 671.789 243.5 620.22C176.138 572.351 133.014 512.96 112 460.998C84.4999 392.998 70.9999 312.998 112 242.998C165.388 151.847 213.293 162.439 296.5 131.498C396 94.4982 377 68.6717 469.673 40.0404Z" stroke="#FEC0A0" stroke-width="2"/>
<path fill-rule="evenodd" clip-rule="evenodd" d="M469.673 20.0404C546.874 -3.81079 638.441 8.01149 703.833 48.6716C756.5 81.4199 786.986 150.75 797 174.498C814.5 215.998 825.672 332.619 797 405.498C768.308 478.427 747 533.498 673.5 600.22C607.069 660.524 535.5 723.498 466.5 723.498C390 723.498 316.07 651.789 243.5 600.22C176.138 552.351 133.014 492.96 112 440.998C84.4999 372.998 70.9999 292.998 112 222.998C165.388 131.847 213.293 142.439 296.5 111.498C396 74.4982 377 48.6717 469.673 20.0404Z" stroke="#FEC0A0" stroke-width="2"/>
<path fill-rule="evenodd" clip-rule="evenodd" d="M469.673 80.0404C546.874 56.1892 638.441 68.0115 703.833 108.672C756.5 141.42 786.986 210.75 797 234.498C814.5 275.998 825.672 392.619 797 465.498C768.308 538.427 747 593.498 673.5 660.22C607.069 720.524 535.5 783.498 466.5 783.498C390 783.498 316.07 711.789 243.5 660.22C176.138 612.351 133.014 552.96 112 500.998C84.4999 432.998 70.9999 352.998 112 282.998C165.388 191.847 213.293 202.439 296.5 171.498C396 134.498 377 108.672 469.673 80.0404Z" stroke="#FEC0A0" stroke-width="2"/>
<path fill-rule="evenodd" clip-rule="evenodd" d="M273.124 280.637C328.537 263.521 382.487 312.491 440.734 315.995C494.883 319.252 550.761 272.903 598.211 300.195C645.73 327.525 655.746 392.121 666.545 445.87C676.303 494.44 667.021 541.793 656.39 589.77C644.552 643.198 639.944 701.533 601.432 739.741C559.866 780.979 500.384 811.022 441.888 802.581C385.057 794.381 353.103 734.827 308.733 697.508C267.817 663.094 220.104 638.581 192.426 592.763C158.586 536.746 119.079 472.94 135.262 410.35C151.584 347.217 211.221 299.758 273.124 280.637Z" fill="#DEDEF7"/>
</svg>
