<svg width="901" height="856" viewBox="0 0 901 856" fill="none" xmlns="http://www.w3.org/2000/svg">
<path fill-rule="evenodd" clip-rule="evenodd" d="M464.472 113.22C541.673 89.3691 633.241 101.191 698.632 141.852C751.299 174.6 781.785 243.93 791.799 267.678C809.299 309.178 820.471 425.799 791.799 498.678C763.107 571.607 741.799 626.678 668.299 693.4C601.868 753.704 530.299 816.678 461.299 816.678C384.799 816.678 310.87 744.969 238.299 693.4C170.937 645.531 127.813 586.14 106.799 534.178C79.2992 466.178 65.7992 386.178 106.799 316.178C160.187 225.027 206.592 212.619 289.799 181.678C389.299 144.678 371.799 141.852 464.472 113.22Z" fill="#1C1E52"/>
<path fill-rule="evenodd" clip-rule="evenodd" d="M744.915 496.35C741.936 557.875 711.984 613.224 673.319 668.156C632.113 726.698 559.462 787.968 482.043 802.511C405.481 816.894 348.747 758.249 292.215 718.231C247.257 686.405 207.955 649.943 196.353 600.275C184.731 550.524 198.239 498.298 229.992 451.87C263.83 402.394 316.029 367.995 374.803 339.354C466.394 294.722 568.232 206.729 655.996 244.277C743.14 281.559 749.037 411.179 744.915 496.35Z" fill="#FD8061"/>
<path fill-rule="evenodd" clip-rule="evenodd" d="M747.6 480.993C744.625 543.441 714.34 599.602 675.235 655.333C633.559 714.728 560.052 776.871 481.688 791.582C404.191 806.13 346.719 746.566 289.463 705.909C243.93 673.576 204.12 636.539 192.341 586.117C180.543 535.611 194.183 482.609 226.298 435.504C260.52 385.307 313.34 350.426 372.82 321.393C465.511 276.151 568.547 186.902 657.418 225.072C745.662 262.972 751.717 394.544 747.6 480.993Z" stroke="#FD8061" stroke-width="1.5"/>
<path fill-rule="evenodd" clip-rule="evenodd" d="M751.295 464.084C748.271 527.479 717.518 584.494 677.809 641.073C635.49 701.37 560.85 764.46 481.28 779.398C402.591 794.17 344.239 733.705 286.105 692.435C239.874 659.613 199.453 622.017 187.496 570.831C175.519 519.559 189.371 465.752 221.982 417.931C256.733 366.971 310.367 331.558 370.763 302.082C464.88 256.148 569.504 165.541 659.74 204.286C749.338 242.756 755.48 376.324 751.295 464.084Z" stroke="#FD8061" stroke-width="1.5"/>
<path fill-rule="evenodd" clip-rule="evenodd" d="M756.018 446.253C752.935 510.744 721.635 568.746 681.22 626.305C638.15 687.647 562.188 751.833 481.214 767.036C401.136 782.071 341.76 720.567 282.605 678.589C235.561 645.205 194.432 606.963 182.268 554.894C170.085 502.738 184.186 448.001 217.376 399.351C252.744 347.508 307.327 311.478 368.79 281.488C464.571 234.753 571.048 142.572 662.872 181.978C754.046 221.105 760.284 356.978 756.018 446.253Z" stroke="#FD8061" stroke-width="1.5"/>
</svg>
