<svg width="1026" height="1498" viewBox="0 0 1026 1498" fill="none" xmlns="http://www.w3.org/2000/svg">
<path fill-rule="evenodd" clip-rule="evenodd" d="M457.469 1485.95C371.426 1461.08 313.895 1351.36 242.086 1275.38C168.417 1197.43 28.3779 1171.76 31.9939 1035.77C36.1617 879.025 236.985 881.578 256.652 727.562C281.662 531.708 55.2867 319.325 142.558 169.918C220.695 36.1486 354.492 296.736 457.469 383.768C508.807 427.156 540.978 501.139 590.693 548.664C646.125 601.653 714.625 609.195 763.134 675.965C850.275 795.912 983.881 904.792 978.868 1082.97C974.144 1250.93 841.069 1343.54 742.205 1419.95C654.534 1487.71 554.149 1513.9 457.469 1485.95Z" fill="#FD8061"/>
<path fill-rule="evenodd" clip-rule="evenodd" d="M697.664 309.836C742.11 343.983 733.614 413.881 763.378 461.78C791.047 506.307 858.808 524.496 863.781 577.162C868.762 629.905 823.407 673.877 787.044 712.41C754.185 747.23 711.653 766.353 667.875 784.761C619.125 805.26 570.54 834.202 518.898 825.164C463.161 815.409 406.248 785.271 380.239 734.419C354.97 685.017 384.097 626.556 388.754 570.72C393.048 519.23 385.737 467.908 406.418 420.492C431.702 362.519 459.965 295.727 518.369 273.537C577.278 251.156 648.014 271.689 697.664 309.836Z" stroke="#393A73"/>
<path fill-rule="evenodd" clip-rule="evenodd" d="M697.664 325.298C742.11 359.446 733.614 429.344 763.378 477.242C791.047 521.77 858.808 539.959 863.781 592.625C868.762 645.367 823.407 689.34 787.044 727.873C754.185 762.693 711.653 781.815 667.875 800.223C619.125 820.723 570.54 849.665 518.898 840.627C463.161 830.871 406.248 800.733 380.239 749.882C354.97 700.479 384.097 642.019 388.754 586.183C393.048 534.692 385.737 483.371 406.418 435.954C431.702 377.981 459.965 311.19 518.369 289C577.278 266.618 648.014 287.152 697.664 325.298Z" stroke="#393A73"/>
<path fill-rule="evenodd" clip-rule="evenodd" d="M697.664 340.761C742.11 374.909 733.614 444.807 763.378 492.705C791.047 537.232 858.808 555.421 863.781 608.087C868.762 660.83 823.407 704.802 787.044 743.335C754.185 778.155 711.653 797.278 667.875 815.686C619.125 836.185 570.54 865.127 518.898 856.089C463.161 846.334 406.248 816.196 380.239 765.344C354.97 715.942 384.097 657.481 388.754 601.645C393.048 550.155 385.737 498.833 406.418 451.417C431.702 393.444 459.965 326.652 518.369 304.462C577.278 282.081 648.014 302.614 697.664 340.761Z" stroke="#393A73"/>
<path fill-rule="evenodd" clip-rule="evenodd" d="M503.856 1354.52C417.812 1329.65 360.282 1219.93 288.473 1143.95C214.804 1066 74.7646 1040.33 78.3807 904.336C82.5484 747.593 283.372 750.147 303.039 596.131C328.048 400.277 101.673 187.893 188.945 38.4863C267.082 -95.2829 400.879 165.305 503.856 252.336C555.193 295.725 587.365 369.708 637.08 417.233C692.511 470.222 761.012 477.763 809.521 544.534C896.662 664.481 1030.27 773.361 1025.26 951.542C1020.53 1119.49 887.455 1212.11 788.592 1288.52C700.921 1356.28 600.536 1382.47 503.856 1354.52Z" stroke="#FD8061"/>
<path fill-rule="evenodd" clip-rule="evenodd" d="M442.005 1354.52C355.962 1329.65 298.432 1219.93 226.622 1143.95C152.954 1066 12.9144 1040.33 16.5305 904.336C20.6982 747.593 221.522 750.147 241.189 596.131C266.198 400.277 39.8232 187.893 127.095 38.4863C205.232 -95.2829 339.029 165.305 442.005 252.336C493.343 295.725 525.515 369.708 575.23 417.233C630.661 470.222 699.162 477.763 747.67 544.534C834.812 664.481 968.417 773.361 963.405 951.542C958.68 1119.49 825.605 1212.11 726.742 1288.52C639.071 1356.28 538.686 1382.47 442.005 1354.52Z" stroke="#FD8061"/>
<path fill-rule="evenodd" clip-rule="evenodd" d="M488.393 1354.52C402.35 1329.65 344.819 1219.93 273.01 1143.95C199.342 1066 59.3021 1040.33 62.9181 904.336C67.0859 747.593 267.909 750.147 287.576 596.131C312.586 400.277 86.2109 187.893 173.482 38.4863C251.62 -95.2829 385.417 165.305 488.393 252.336C539.731 295.725 571.902 369.708 621.618 417.233C677.049 470.222 745.549 477.763 794.058 544.534C881.199 664.481 1014.8 773.361 1009.79 951.542C1005.07 1119.49 871.993 1212.11 773.129 1288.52C685.459 1356.28 585.074 1382.47 488.393 1354.52Z" stroke="#FD8061"/>
<path fill-rule="evenodd" clip-rule="evenodd" d="M426.543 1354.52C340.5 1329.65 282.969 1219.93 211.16 1143.95C137.492 1066 -2.54808 1040.33 1.06798 904.336C5.2357 747.593 206.059 750.147 225.726 596.131C250.736 400.277 24.3607 187.893 111.632 38.4863C189.769 -95.2829 323.566 165.305 426.543 252.336C477.881 295.725 510.052 369.708 559.768 417.233C615.199 470.222 683.699 477.763 732.208 544.534C819.349 664.481 952.955 773.361 947.942 951.542C943.218 1119.49 810.143 1212.11 711.279 1288.52C623.608 1356.28 523.223 1382.47 426.543 1354.52Z" stroke="#FD8061"/>
<path fill-rule="evenodd" clip-rule="evenodd" d="M472.931 1354.52C386.887 1329.65 329.357 1219.93 257.548 1143.95C183.879 1066 43.8396 1040.33 47.4556 904.336C51.6233 747.593 252.447 750.147 272.114 596.131C297.123 400.277 70.7484 187.893 158.02 38.4863C236.157 -95.2829 369.954 165.305 472.931 252.336C524.268 295.725 556.44 369.708 606.155 417.233C661.586 470.222 730.087 477.763 778.596 544.534C865.737 664.481 999.342 773.361 994.33 951.542C989.605 1119.49 856.53 1212.11 757.667 1288.52C669.996 1356.28 569.611 1382.47 472.931 1354.52Z" stroke="#FD8061"/>
<path fill-rule="evenodd" clip-rule="evenodd" d="M457.468 1354.52C371.425 1329.65 313.894 1219.93 242.085 1143.95C168.417 1066 28.377 1040.33 31.9931 904.336C36.1608 747.593 236.984 750.147 256.651 596.131C281.661 400.277 55.2858 187.893 142.557 38.4863C220.694 -95.2829 354.492 165.305 457.468 252.336C508.806 295.725 540.977 369.708 590.693 417.233C646.124 470.222 714.624 477.763 763.133 544.534C850.274 664.481 983.88 773.361 978.867 951.542C974.143 1119.49 841.068 1212.11 742.204 1288.52C654.534 1356.28 554.149 1382.47 457.468 1354.52Z" stroke="#FD8061"/>
<path fill-rule="evenodd" clip-rule="evenodd" d="M697.663 300.373C742.109 334.521 733.613 404.419 763.377 452.317C791.046 496.844 858.807 515.034 863.78 567.7C868.761 620.442 823.406 664.415 787.043 702.948C754.184 737.768 711.652 756.89 667.874 775.298C619.124 795.798 570.539 824.74 518.897 815.701C463.16 805.946 406.247 775.808 380.238 724.957C354.969 675.554 384.096 617.093 388.753 561.257C393.047 509.767 385.736 458.446 406.417 411.029C431.701 353.056 459.964 286.265 518.368 264.075C577.277 241.693 648.013 262.227 697.663 300.373Z" fill="#1C1E52"/>
</svg>
