<svg width="901" height="856" viewBox="0 0 901 856" fill="none" xmlns="http://www.w3.org/2000/svg">
<path fill-rule="evenodd" clip-rule="evenodd" d="M469.472 99.2203C546.673 75.3691 638.241 87.1914 703.632 127.852C756.299 160.6 786.785 229.93 796.799 253.678C814.299 295.178 825.471 411.799 796.799 484.678C768.107 557.607 746.799 612.678 673.299 679.4C606.868 739.704 535.299 802.678 466.299 802.678C389.799 802.678 315.87 730.969 243.299 679.4C175.937 631.531 132.813 572.14 111.799 520.178C84.2992 452.178 70.7992 372.178 111.799 302.178C165.187 211.027 213.092 221.619 296.299 190.678C395.799 153.678 376.799 127.852 469.472 99.2203Z" fill="#FD8061"/>
<path fill-rule="evenodd" clip-rule="evenodd" d="M744.915 496.35C741.936 557.875 711.984 613.224 673.319 668.156C632.113 726.698 559.462 787.968 482.043 802.511C405.481 816.894 348.747 758.249 292.215 718.231C247.257 686.405 207.955 649.943 196.353 600.275C184.731 550.524 198.239 498.298 229.992 451.87C263.83 402.394 316.029 367.995 374.803 339.354C466.394 294.722 568.232 206.729 655.996 244.277C743.14 281.559 749.037 411.179 744.915 496.35Z" fill="#1C1E52"/>
<path fill-rule="evenodd" clip-rule="evenodd" d="M741.781 479.805C738.925 541.593 709.168 597.128 670.725 652.228C629.756 710.948 557.446 772.352 480.297 786.817C404.002 801.121 347.339 742.117 290.911 701.821C246.036 669.775 206.791 633.081 195.134 583.176C183.458 533.188 196.827 480.759 228.396 434.187C262.036 384.559 314.009 350.106 372.545 321.448C463.766 276.79 565.122 188.601 652.68 226.473C739.618 264.077 745.734 394.272 741.781 479.805Z" stroke="#1C1E52"/>
<path fill-rule="evenodd" clip-rule="evenodd" d="M742.781 488.392C739.925 550.18 710.168 605.715 671.725 660.814C630.756 719.535 558.446 780.939 481.297 795.403C405.002 809.708 348.339 750.704 291.911 710.408C247.036 678.361 207.791 641.668 196.134 591.763C184.458 541.775 197.827 489.346 229.396 442.774C263.036 393.145 315.009 358.692 373.545 330.035C464.766 285.376 566.122 197.187 653.68 235.059C740.618 272.664 746.734 402.859 742.781 488.392Z" stroke="#1C1E52"/>
<path fill-rule="evenodd" clip-rule="evenodd" d="M740.712 468.874C737.828 530.544 708.05 585.985 669.587 640.996C628.596 699.622 556.266 760.94 479.118 775.411C402.825 789.722 346.194 730.857 289.79 690.663C244.934 658.699 205.709 622.093 194.076 572.289C182.423 522.402 195.814 470.068 227.4 423.572C261.059 374.023 313.041 339.613 371.585 310.985C462.816 266.372 564.201 178.307 651.733 216.067C738.645 253.561 744.703 383.503 740.712 468.874Z" stroke="#1C1E52"/>
<path fill-rule="evenodd" clip-rule="evenodd" d="M739.414 459.312C736.562 521.235 706.765 576.888 668.266 632.103C627.238 690.947 554.818 752.476 477.544 766.962C401.126 781.288 344.362 722.146 287.837 681.754C242.884 649.631 203.57 612.851 191.887 562.835C180.184 512.735 193.568 460.193 225.182 413.523C258.871 363.79 310.924 329.268 369.552 300.556C460.916 255.812 562.427 167.442 650.133 205.41C737.219 243.109 743.363 373.591 739.414 459.312Z" stroke="#1C1E52"/>
<path fill-rule="evenodd" clip-rule="evenodd" d="M739.117 448.336C736.166 510.068 706.205 565.587 667.519 620.684C626.292 679.402 553.58 740.841 476.071 755.394C399.419 769.785 342.584 710.913 285.96 670.731C240.929 638.775 201.559 602.17 189.916 552.328C178.254 502.404 191.752 450.009 223.521 403.44C257.376 353.816 309.624 319.328 368.457 290.621C460.14 245.885 562.062 157.648 649.956 195.368C737.229 232.821 743.201 362.881 739.117 448.336Z" stroke="#1C1E52"/>
</svg>
