<svg width="901" height="856" viewBox="0 0 901 856" fill="none" xmlns="http://www.w3.org/2000/svg">
<path fill-rule="evenodd" clip-rule="evenodd" d="M469.472 99.2203C546.673 75.3691 638.241 87.1914 703.632 127.852C756.299 160.6 786.785 229.93 796.799 253.678C814.299 295.178 825.471 411.799 796.799 484.678C768.107 557.607 746.799 612.678 673.299 679.4C606.868 739.704 535.299 802.678 466.299 802.678C389.799 802.678 315.87 730.969 243.299 679.4C175.937 631.531 132.813 572.14 111.799 520.178C84.2992 452.178 70.7992 372.178 111.799 302.178C165.188 211.027 213.092 221.619 296.299 190.678C395.799 153.678 376.799 127.852 469.472 99.2203Z" fill="#1C1E52"/>
<path fill-rule="evenodd" clip-rule="evenodd" d="M469.472 59.2186C546.673 35.3674 638.241 47.1897 703.632 87.8499C756.299 120.598 786.785 189.929 796.799 213.676C814.299 255.176 825.471 371.798 796.799 444.676C768.107 517.605 746.799 572.677 673.299 639.398C606.868 699.702 535.299 762.677 466.299 762.677C389.799 762.677 315.87 690.967 243.299 639.398C175.937 591.53 132.813 532.139 111.799 480.176C84.2992 412.177 70.7992 332.177 111.799 262.176C165.188 171.026 213.092 181.618 296.299 150.676C395.799 113.676 376.799 87.8499 469.472 59.2186Z" stroke="#1C1E52"/>
<path fill-rule="evenodd" clip-rule="evenodd" d="M469.472 39.2186C546.673 15.3674 638.241 27.1897 703.632 67.8499C756.299 100.598 786.785 169.929 796.799 193.676C814.299 235.176 825.471 351.798 796.799 424.676C768.107 497.605 746.799 552.677 673.299 619.398C606.868 679.702 535.299 742.677 466.299 742.677C389.799 742.677 315.87 670.967 243.299 619.398C175.937 571.53 132.813 512.139 111.799 460.176C84.2992 392.177 70.7992 312.177 111.799 242.176C165.188 151.026 213.092 161.618 296.299 130.676C395.799 93.6764 376.799 67.8499 469.472 39.2186Z" stroke="#1C1E52"/>
<path fill-rule="evenodd" clip-rule="evenodd" d="M469.472 19.2186C546.673 -4.63257 638.241 7.18971 703.632 47.8499C756.299 80.5982 786.785 149.929 796.799 173.676C814.299 215.176 825.471 331.798 796.799 404.676C768.107 477.605 746.799 532.677 673.299 599.398C606.868 659.702 535.299 722.677 466.299 722.677C389.799 722.677 315.87 650.967 243.299 599.398C175.937 551.53 132.813 492.139 111.799 440.176C84.2992 372.177 70.7992 292.177 111.799 222.176C165.188 131.026 213.092 141.618 296.299 110.676C395.799 73.6764 376.799 47.8499 469.472 19.2186Z" stroke="#1C1E52"/>
<path fill-rule="evenodd" clip-rule="evenodd" d="M469.472 79.2186C546.673 55.3674 638.241 67.1897 703.632 107.85C756.299 140.598 786.785 209.929 796.799 233.676C814.299 275.176 825.471 391.798 796.799 464.676C768.107 537.605 746.799 592.677 673.299 659.398C606.868 719.702 535.299 782.677 466.299 782.677C389.799 782.677 315.87 710.967 243.299 659.398C175.937 611.53 132.813 552.139 111.799 500.176C84.2992 432.177 70.7992 352.177 111.799 282.176C165.188 191.026 213.092 201.618 296.299 170.676C395.799 133.676 376.799 107.85 469.472 79.2186Z" stroke="#1C1E52"/>
<path fill-rule="evenodd" clip-rule="evenodd" d="M272.923 279.815C328.337 262.699 382.286 311.669 440.534 315.173C494.682 318.431 550.56 272.082 598.011 299.373C645.53 326.704 655.546 391.299 666.345 445.048C676.103 493.618 666.82 540.971 656.19 588.949C644.352 642.376 639.743 700.712 601.231 738.92C559.666 780.158 500.183 810.2 441.687 801.759C384.857 793.559 352.903 734.005 308.533 696.686C267.616 662.272 219.903 637.759 192.225 591.942C158.385 535.924 118.879 472.119 135.061 409.528C151.383 346.396 211.02 298.936 272.923 279.815Z" fill="#FD8061"/>
</svg>
