<svg width="1002" height="854" viewBox="0 0 1002 854" fill="none" xmlns="http://www.w3.org/2000/svg">
<path fill-rule="evenodd" clip-rule="evenodd" d="M576.871 39.1019C682.017 63.583 765.689 124.371 845.151 197.405C929.835 275.239 1006.65 398.665 1000.79 513.491C994.994 627.046 870.92 688.384 779.121 755.565C706.116 808.993 627.36 852.854 536.871 852.999C446.231 853.145 361.373 816.759 293.84 756.346C221.876 691.969 183.32 606.455 157.349 513.491C116.876 368.621 5.56332 194.915 105.597 82.5287C204.923 -29.0636 431.315 5.21238 576.871 39.1019Z" fill="#1C1E52" stroke="#1C1E52"/>
<path fill-rule="evenodd" clip-rule="evenodd" d="M560.871 39.1019C666.017 63.583 749.689 124.371 829.151 197.405C913.835 275.239 990.647 398.665 984.788 513.491C978.994 627.046 854.92 688.384 763.121 755.565C690.116 808.993 611.36 852.854 520.871 852.999C430.231 853.145 345.373 816.759 277.84 756.346C205.876 691.969 167.32 606.455 141.349 513.491C100.876 368.621 -10.4367 194.915 89.5968 82.5287C188.923 -29.0636 415.315 5.21238 560.871 39.1019Z" stroke="#1C1E52"/>
<path fill-rule="evenodd" clip-rule="evenodd" d="M544.871 39.1019C650.017 63.583 733.689 124.371 813.151 197.405C897.835 275.239 974.647 398.665 968.788 513.491C962.994 627.046 838.92 688.384 747.121 755.565C674.116 808.993 595.36 852.854 504.871 852.999C414.231 853.145 329.373 816.759 261.84 756.346C189.876 691.969 151.32 606.455 125.349 513.491C84.8765 368.621 -26.4367 194.915 73.5968 82.5287C172.923 -29.0636 399.315 5.21238 544.871 39.1019Z" stroke="#1C1E52"/>
<path fill-rule="evenodd" clip-rule="evenodd" d="M528.871 39.1019C634.017 63.583 717.689 124.371 797.151 197.405C881.835 275.239 958.647 398.665 952.788 513.491C946.994 627.046 822.92 688.384 731.121 755.565C658.116 808.993 579.36 852.854 488.871 852.999C398.231 853.145 313.373 816.759 245.84 756.346C173.876 691.969 135.32 606.455 109.349 513.491C68.8765 368.621 -42.4367 194.915 57.5968 82.5287C156.923 -29.0636 383.315 5.21238 528.871 39.1019Z" stroke="#1C1E52"/>
<path fill-rule="evenodd" clip-rule="evenodd" d="M512.871 39.1019C618.017 63.583 701.689 124.371 781.151 197.405C865.835 275.239 942.647 398.665 936.788 513.491C930.994 627.046 806.92 688.384 715.121 755.565C642.116 808.993 563.36 852.854 472.871 852.999C382.231 853.145 297.373 816.759 229.84 756.346C157.876 691.969 119.32 606.455 93.3486 513.491C52.8765 368.621 -58.4367 194.915 41.5968 82.5287C140.923 -29.0636 367.315 5.21238 512.871 39.1019Z" stroke="#1C1E52"/>
<path fill-rule="evenodd" clip-rule="evenodd" d="M478.219 609.014C428.083 579.858 427.541 507.001 390.65 461.789C356.355 419.759 284.406 410.07 272.324 356.681C260.225 303.214 300.944 252.079 333.156 207.717C362.264 167.63 403.379 142.37 445.866 117.679C493.18 90.1824 539.205 54.0438 593.4 56.4771C651.892 59.1034 714.291 82.4922 747.721 131.232C780.198 178.583 758.052 242.437 760.671 300.355C763.087 353.766 762.448 339 762.448 456.866C744.18 519.711 724.025 591.999 667.029 622.509C609.539 653.284 534.226 641.583 478.219 609.014Z" fill="#FD8061"/>
</svg>
